<mxfile host="app.diagrams.net" agent="Mozilla/5.0 (Windows NT 10.0; Win64; x64) AppleWebKit/537.36 (KHTML, like Gecko) Chrome/141.0.0.0 Safari/537.36" version="28.2.7">
  <diagram name="第 1 页" id="2h00qUzwbVnot-_hGvuR">
    <mxGraphModel dx="1042" dy="527" grid="1" gridSize="10" guides="1" tooltips="1" connect="1" arrows="1" fold="1" page="1" pageScale="1" pageWidth="827" pageHeight="1169" math="0" shadow="0">
      <root>
        <mxCell id="0" />
        <mxCell id="1" parent="0" />
        <mxCell id="_iVPTeu-twVMuzjjHFI8-6" style="edgeStyle=orthogonalEdgeStyle;rounded=0;orthogonalLoop=1;jettySize=auto;html=1;exitX=1;exitY=0.5;exitDx=0;exitDy=0;" parent="1" source="_iVPTeu-twVMuzjjHFI8-1" target="_iVPTeu-twVMuzjjHFI8-5" edge="1">
          <mxGeometry relative="1" as="geometry" />
        </mxCell>
        <mxCell id="_iVPTeu-twVMuzjjHFI8-1" value="商场" style="html=1;dashed=0;whiteSpace=wrap;shape=mxgraph.dfd.dataStoreID;align=left;spacingLeft=3;points=[[0,0],[0.5,0],[1,0],[0,0.5],[1,0.5],[0,1],[0.5,1],[1,1]];" parent="1" vertex="1">
          <mxGeometry x="160" y="70" width="100" height="30" as="geometry" />
        </mxCell>
        <mxCell id="_iVPTeu-twVMuzjjHFI8-9" style="edgeStyle=orthogonalEdgeStyle;rounded=0;orthogonalLoop=1;jettySize=auto;html=1;exitX=0.5;exitY=1;exitDx=0;exitDy=0;entryX=0.5;entryY=0;entryDx=0;entryDy=0;" parent="1" source="_iVPTeu-twVMuzjjHFI8-2" target="_iVPTeu-twVMuzjjHFI8-8" edge="1">
          <mxGeometry relative="1" as="geometry" />
        </mxCell>
        <mxCell id="_iVPTeu-twVMuzjjHFI8-14" style="edgeStyle=orthogonalEdgeStyle;rounded=0;orthogonalLoop=1;jettySize=auto;html=1;exitX=0.5;exitY=1;exitDx=0;exitDy=0;entryX=0.5;entryY=0;entryDx=0;entryDy=0;" parent="1" source="_iVPTeu-twVMuzjjHFI8-2" target="_iVPTeu-twVMuzjjHFI8-13" edge="1">
          <mxGeometry relative="1" as="geometry" />
        </mxCell>
        <mxCell id="_iVPTeu-twVMuzjjHFI8-2" value="部门" style="html=1;dashed=0;whiteSpace=wrap;shape=mxgraph.dfd.dataStoreID;align=left;spacingLeft=3;points=[[0,0],[0.5,0],[1,0],[0,0.5],[1,0.5],[0,1],[0.5,1],[1,1]];" parent="1" vertex="1">
          <mxGeometry x="540" y="70" width="100" height="30" as="geometry" />
        </mxCell>
        <mxCell id="_iVPTeu-twVMuzjjHFI8-3" value="经理" style="html=1;dashed=0;whiteSpace=wrap;shape=mxgraph.dfd.dataStoreID;align=left;spacingLeft=3;points=[[0,0],[0.5,0],[1,0],[0,0.5],[1,0.5],[0,1],[0.5,1],[1,1]];" parent="1" vertex="1">
          <mxGeometry x="540" y="280" width="100" height="30" as="geometry" />
        </mxCell>
        <mxCell id="_iVPTeu-twVMuzjjHFI8-19" style="edgeStyle=orthogonalEdgeStyle;rounded=0;orthogonalLoop=1;jettySize=auto;html=1;exitX=0.5;exitY=1;exitDx=0;exitDy=0;entryX=0;entryY=0.5;entryDx=0;entryDy=0;" parent="1" source="_iVPTeu-twVMuzjjHFI8-4" target="_iVPTeu-twVMuzjjHFI8-17" edge="1">
          <mxGeometry relative="1" as="geometry" />
        </mxCell>
        <mxCell id="_iVPTeu-twVMuzjjHFI8-4" value="员工" style="html=1;dashed=0;whiteSpace=wrap;shape=mxgraph.dfd.dataStoreID;align=left;spacingLeft=3;points=[[0,0],[0.5,0],[1,0],[0,0.5],[1,0.5],[0,1],[0.5,1],[1,1]];" parent="1" vertex="1">
          <mxGeometry x="335" y="280" width="100" height="30" as="geometry" />
        </mxCell>
        <mxCell id="_iVPTeu-twVMuzjjHFI8-7" style="edgeStyle=orthogonalEdgeStyle;rounded=0;orthogonalLoop=1;jettySize=auto;html=1;exitX=1;exitY=0.5;exitDx=0;exitDy=0;entryX=0;entryY=0.5;entryDx=0;entryDy=0;" parent="1" source="_iVPTeu-twVMuzjjHFI8-5" target="_iVPTeu-twVMuzjjHFI8-2" edge="1">
          <mxGeometry relative="1" as="geometry" />
        </mxCell>
        <mxCell id="_iVPTeu-twVMuzjjHFI8-5" value="设立部门" style="shape=ellipse;html=1;dashed=0;whiteSpace=wrap;perimeter=ellipsePerimeter;" parent="1" vertex="1">
          <mxGeometry x="320" y="50" width="130" height="70" as="geometry" />
        </mxCell>
        <mxCell id="_iVPTeu-twVMuzjjHFI8-10" style="edgeStyle=orthogonalEdgeStyle;rounded=0;orthogonalLoop=1;jettySize=auto;html=1;exitX=0.5;exitY=1;exitDx=0;exitDy=0;entryX=0.5;entryY=0;entryDx=0;entryDy=0;" parent="1" source="_iVPTeu-twVMuzjjHFI8-8" target="_iVPTeu-twVMuzjjHFI8-3" edge="1">
          <mxGeometry relative="1" as="geometry" />
        </mxCell>
        <mxCell id="_iVPTeu-twVMuzjjHFI8-8" value="任命经理" style="shape=ellipse;html=1;dashed=0;whiteSpace=wrap;perimeter=ellipsePerimeter;" parent="1" vertex="1">
          <mxGeometry x="525" y="170" width="130" height="70" as="geometry" />
        </mxCell>
        <mxCell id="_iVPTeu-twVMuzjjHFI8-15" style="edgeStyle=orthogonalEdgeStyle;rounded=0;orthogonalLoop=1;jettySize=auto;html=1;exitX=0.5;exitY=1;exitDx=0;exitDy=0;entryX=0.5;entryY=0;entryDx=0;entryDy=0;" parent="1" source="_iVPTeu-twVMuzjjHFI8-13" target="_iVPTeu-twVMuzjjHFI8-4" edge="1">
          <mxGeometry relative="1" as="geometry" />
        </mxCell>
        <mxCell id="_iVPTeu-twVMuzjjHFI8-13" value="招聘员工" style="shape=ellipse;html=1;dashed=0;whiteSpace=wrap;perimeter=ellipsePerimeter;" parent="1" vertex="1">
          <mxGeometry x="320" y="170" width="130" height="70" as="geometry" />
        </mxCell>
        <mxCell id="_iVPTeu-twVMuzjjHFI8-20" style="edgeStyle=orthogonalEdgeStyle;rounded=0;orthogonalLoop=1;jettySize=auto;html=1;exitX=1;exitY=0.5;exitDx=0;exitDy=0;entryX=0.5;entryY=1;entryDx=0;entryDy=0;" parent="1" source="_iVPTeu-twVMuzjjHFI8-17" target="_iVPTeu-twVMuzjjHFI8-3" edge="1">
          <mxGeometry relative="1" as="geometry" />
        </mxCell>
        <mxCell id="_iVPTeu-twVMuzjjHFI8-17" value="担任经理" style="shape=ellipse;html=1;dashed=0;whiteSpace=wrap;perimeter=ellipsePerimeter;" parent="1" vertex="1">
          <mxGeometry x="420" y="340" width="130" height="70" as="geometry" />
        </mxCell>
      </root>
    </mxGraphModel>
  </diagram>
</mxfile>
